<mxfile host="drawio-plugin" modified="2021-06-28T14:13:31.904Z" agent="5.0 (Macintosh; Intel Mac OS X 11_2_2) AppleWebKit/537.36 (KHTML, like Gecko) Chrome/87.0.4280.141 Safari/537.36" version="14.7.4" etag="nJ0ySP4iGoqMiizDMAVE" type="embed"><diagram id="oyzS6AB-nlTE-pvr_Qgm" name="musicSample-representation"><mxGraphModel dx="744" dy="451" grid="1" gridSize="10" guides="1" tooltips="1" connect="1" arrows="1" fold="1" page="1" pageScale="1" pageWidth="850" pageHeight="1100" math="0" shadow="0"><root><mxCell id="0"/><mxCell id="1" parent="0"/><mxCell id="4" value="" style="rounded=0;whiteSpace=wrap;html=1;" vertex="1" parent="1"><mxGeometry x="40" y="170" width="680" height="60" as="geometry"/></mxCell><mxCell id="6" value="" style="endArrow=none;dashed=1;html=1;dashPattern=1 3;strokeWidth=2;" edge="1" parent="1"><mxGeometry width="50" height="50" relative="1" as="geometry"><mxPoint x="360" y="300" as="sourcePoint"/><mxPoint x="360" y="240" as="targetPoint"/></mxGeometry></mxCell><mxCell id="8" value="0s" style="text;html=1;strokeColor=none;fillColor=none;align=center;verticalAlign=middle;whiteSpace=wrap;rounded=0;" vertex="1" parent="1"><mxGeometry x="20" y="240" width="40" height="20" as="geometry"/></mxCell><mxCell id="9" value="30s" style="text;html=1;strokeColor=none;fillColor=none;align=center;verticalAlign=middle;whiteSpace=wrap;rounded=0;" vertex="1" parent="1"><mxGeometry x="700" y="240" width="40" height="20" as="geometry"/></mxCell><mxCell id="10" value="dataset.slice_mode=False" style="text;html=1;align=center;verticalAlign=middle;resizable=0;points=[];autosize=1;strokeColor=none;" vertex="1" parent="1"><mxGeometry x="40" y="80" width="160" height="20" as="geometry"/></mxCell><mxCell id="11" value="x744" style="text;html=1;strokeColor=none;fillColor=none;align=center;verticalAlign=middle;whiteSpace=wrap;rounded=0;" vertex="1" parent="1"><mxGeometry x="320" y="260" width="40" height="20" as="geometry"/></mxCell><mxCell id="12" value="&lt;span&gt;One 30s excerpt of a song represents one sample.&lt;/span&gt;&lt;br&gt;&lt;span&gt;Sample_rate: 44100Hz --&amp;gt; one sample is composed by 1345050 time series values.&lt;/span&gt;" style="text;html=1;align=center;verticalAlign=middle;resizable=0;points=[];autosize=1;strokeColor=none;" vertex="1" parent="1"><mxGeometry x="130" y="110" width="460" height="30" as="geometry"/></mxCell><mxCell id="13" value="dataset.slice_mode=True" style="text;html=1;align=center;verticalAlign=middle;resizable=0;points=[];autosize=1;strokeColor=none;" vertex="1" parent="1"><mxGeometry x="45" y="330" width="150" height="20" as="geometry"/></mxCell><mxCell id="14" value="" style="rounded=0;whiteSpace=wrap;html=1;" vertex="1" parent="1"><mxGeometry x="40" y="400" width="680" height="60" as="geometry"/></mxCell><mxCell id="15" value="" style="endArrow=none;dashed=1;html=1;dashPattern=1 3;strokeWidth=2;" edge="1" parent="1"><mxGeometry width="50" height="50" relative="1" as="geometry"><mxPoint x="360" y="530" as="sourcePoint"/><mxPoint x="360" y="470" as="targetPoint"/></mxGeometry></mxCell><mxCell id="16" value="x744" style="text;html=1;strokeColor=none;fillColor=none;align=center;verticalAlign=middle;whiteSpace=wrap;rounded=0;" vertex="1" parent="1"><mxGeometry x="320" y="490" width="40" height="20" as="geometry"/></mxCell><mxCell id="17" value="&lt;br&gt;With this representation each (old 30s sample) is divided into 61 slices of 500ms each.&lt;br&gt;This time one sample is composed by 22050 time series values" style="text;html=1;align=center;verticalAlign=middle;resizable=0;points=[];autosize=1;strokeColor=none;" vertex="1" parent="1"><mxGeometry x="125" y="340" width="470" height="50" as="geometry"/></mxCell><mxCell id="18" value="0s" style="text;html=1;strokeColor=none;fillColor=none;align=center;verticalAlign=middle;whiteSpace=wrap;rounded=0;" vertex="1" parent="1"><mxGeometry x="20" y="470" width="40" height="20" as="geometry"/></mxCell><mxCell id="19" value="30s" style="text;html=1;strokeColor=none;fillColor=none;align=center;verticalAlign=middle;whiteSpace=wrap;rounded=0;" vertex="1" parent="1"><mxGeometry x="700" y="470" width="40" height="20" as="geometry"/></mxCell><mxCell id="21" value="" style="endArrow=none;html=1;entryX=0.06;entryY=0.017;entryDx=0;entryDy=0;entryPerimeter=0;" edge="1" parent="1" target="14"><mxGeometry width="50" height="50" relative="1" as="geometry"><mxPoint x="80" y="460" as="sourcePoint"/><mxPoint x="130" y="410" as="targetPoint"/></mxGeometry></mxCell><mxCell id="22" value="" style="endArrow=none;html=1;entryX=0.06;entryY=0.017;entryDx=0;entryDy=0;entryPerimeter=0;" edge="1" parent="1"><mxGeometry width="50" height="50" relative="1" as="geometry"><mxPoint x="119.5" y="460" as="sourcePoint"/><mxPoint x="120.29999999999995" y="401.02" as="targetPoint"/></mxGeometry></mxCell><mxCell id="23" value="" style="endArrow=none;html=1;entryX=0.06;entryY=0.017;entryDx=0;entryDy=0;entryPerimeter=0;" edge="1" parent="1"><mxGeometry width="50" height="50" relative="1" as="geometry"><mxPoint x="160" y="458.98" as="sourcePoint"/><mxPoint x="160.79999999999995" y="400" as="targetPoint"/></mxGeometry></mxCell><mxCell id="24" value="" style="endArrow=none;html=1;entryX=0.06;entryY=0.017;entryDx=0;entryDy=0;entryPerimeter=0;" edge="1" parent="1"><mxGeometry width="50" height="50" relative="1" as="geometry"><mxPoint x="200" y="460" as="sourcePoint"/><mxPoint x="200.79999999999995" y="401.02" as="targetPoint"/></mxGeometry></mxCell><mxCell id="25" value="" style="endArrow=none;dashed=1;html=1;dashPattern=1 3;strokeWidth=2;" edge="1" parent="1"><mxGeometry width="50" height="50" relative="1" as="geometry"><mxPoint x="260" y="429.5" as="sourcePoint"/><mxPoint x="220" y="429.5" as="targetPoint"/></mxGeometry></mxCell><mxCell id="27" value="" style="endArrow=classic;html=1;" edge="1" parent="1"><mxGeometry width="50" height="50" relative="1" as="geometry"><mxPoint x="180" y="460" as="sourcePoint"/><mxPoint x="180" y="570" as="targetPoint"/></mxGeometry></mxCell><mxCell id="28" value="" style="rounded=0;whiteSpace=wrap;html=1;" vertex="1" parent="1"><mxGeometry x="120" y="570" width="120" height="60" as="geometry"/></mxCell><mxCell id="29" value="x61" style="text;html=1;align=center;verticalAlign=middle;resizable=0;points=[];autosize=1;strokeColor=none;" vertex="1" parent="1"><mxGeometry x="230" y="410" width="30" height="20" as="geometry"/></mxCell><mxCell id="30" value="start" style="text;html=1;align=center;verticalAlign=middle;resizable=0;points=[];autosize=1;strokeColor=none;" vertex="1" parent="1"><mxGeometry x="100" y="640" width="40" height="20" as="geometry"/></mxCell><mxCell id="31" value="start+22050" style="text;html=1;align=center;verticalAlign=middle;resizable=0;points=[];autosize=1;strokeColor=none;" vertex="1" parent="1"><mxGeometry x="200" y="640" width="80" height="20" as="geometry"/></mxCell><mxCell id="32" value="" style="endArrow=none;dashed=1;html=1;dashPattern=1 3;strokeWidth=2;" edge="1" parent="1"><mxGeometry width="50" height="50" relative="1" as="geometry"><mxPoint x="80" y="599.5" as="sourcePoint"/><mxPoint x="110" y="599.5" as="targetPoint"/></mxGeometry></mxCell><mxCell id="33" value="" style="endArrow=none;dashed=1;html=1;dashPattern=1 3;strokeWidth=2;" edge="1" parent="1"><mxGeometry width="50" height="50" relative="1" as="geometry"><mxPoint x="250" y="599.5" as="sourcePoint"/><mxPoint x="280" y="599.5" as="targetPoint"/></mxGeometry></mxCell></root></mxGraphModel></diagram></mxfile>